<svg width="272" height="763" viewBox="0 0 272 763" fill="none" xmlns="http://www.w3.org/2000/svg">
<g opacity="0.4">
<path d="M681.135 349.663C710.126 384.891 724.182 416.808 723.442 445.429C722.703 474.024 707.19 499.452 676.759 521.711C615.746 566.339 558.061 603.001 503.705 631.699C449.451 660.343 384.218 666.705 307.967 650.729C231.803 634.772 172.764 586.768 130.85 506.638C109.892 466.569 99.5899 429.187 99.9086 394.483C100.227 359.785 111.162 327.734 132.728 298.318C175.971 239.334 214.869 189.854 249.42 149.877C283.894 109.989 331.417 85.1255 392.03 75.3092C422.29 70.4085 449.587 74.3559 473.944 87.1309C498.306 99.9089 519.763 121.538 538.302 152.061C575.461 213.242 623.074 279.109 681.135 349.663Z" stroke="#00F0B5"/>
<path d="M624.675 355.722C648.212 384.332 659.616 410.234 659.025 433.444C658.435 456.627 645.874 477.247 621.196 495.302C571.69 531.522 524.885 561.273 480.779 584.557C436.775 607.788 383.852 612.934 321.971 599.939C260.177 586.962 212.261 547.982 178.225 482.916C161.205 450.38 152.837 420.035 153.084 391.871C153.331 363.715 162.19 337.71 179.674 313.844C214.754 265.96 246.308 225.793 274.338 193.342C302.291 160.98 340.834 140.814 390.011 132.865C414.554 128.898 436.691 132.11 456.445 142.482C476.205 152.857 493.617 170.414 508.668 195.197C538.852 244.897 577.523 298.406 624.675 355.722Z" stroke="#00F0B5"/>
</g>
</svg>
