<svg width="176" height="484" viewBox="0 0 176 484" fill="none" xmlns="http://www.w3.org/2000/svg">
<g opacity="0.3">
<path d="M-197.695 483.385C-186.602 483.385 -175.51 479.225 -167.084 470.799L149.912 153.804C166.764 136.952 166.764 109.54 149.912 92.6877C141.699 84.4749 130.819 79.9951 119.3 79.9951C107.781 79.9951 96.9012 84.4749 88.6884 92.6877L-228.307 409.683C-236.52 417.896 -240.999 428.668 -240.999 440.294C-240.999 451.814 -236.52 462.693 -228.307 470.906C-219.774 479.225 -208.788 483.385 -197.695 483.385ZM119.3 82.1283C130.286 82.1283 140.632 86.3948 148.312 94.181C164.311 110.18 164.311 136.312 148.312 152.311L-168.684 469.306C-184.683 485.305 -210.814 485.305 -226.813 469.306C-234.6 461.52 -238.866 451.174 -238.866 440.294C-238.866 429.308 -234.6 418.962 -226.813 411.283L90.2883 94.181C97.9678 86.3948 108.314 82.1283 119.3 82.1283Z" fill="#00F0B5"/>
<path d="M-184.896 403.39C-173.804 403.39 -162.711 399.23 -154.285 390.804L162.71 73.8091C179.563 56.9567 179.563 29.545 162.71 12.6926C154.497 4.47974 143.618 0 132.099 0C120.579 0 109.7 4.47974 101.487 12.6926L-215.508 329.688C-223.721 337.901 -228.201 348.673 -228.201 360.299C-228.201 371.819 -223.721 382.698 -215.508 390.911C-206.975 399.23 -195.989 403.39 -184.896 403.39ZM132.099 2.13321C143.085 2.13321 153.431 6.39963 161.11 14.1859C177.11 30.1849 177.11 56.3168 161.11 72.3158L-155.885 389.311C-171.884 405.31 -198.016 405.31 -214.015 389.311C-221.801 381.525 -226.067 371.179 -226.067 360.299C-226.067 349.313 -221.801 338.967 -214.015 331.288L103.087 14.1859C110.767 6.39963 121.113 2.13321 132.099 2.13321Z" fill="#00F0B5"/>
</g>
</svg>
