<svg width="17" height="16" viewBox="0 0 17 16" fill="none" xmlns="http://www.w3.org/2000/svg">
<path fill-rule="evenodd" clip-rule="evenodd" d="M3.36225 2.86128C3.6226 2.60093 4.04471 2.60093 4.30506 2.86128L8.50032 7.05654L12.6956 2.86128C12.9559 2.60093 13.378 2.60093 13.6384 2.86128C13.8987 3.12163 13.8987 3.54374 13.6384 3.80409L9.44313 7.99934L13.6384 12.1946C13.8987 12.455 13.8987 12.8771 13.6384 13.1374C13.378 13.3978 12.9559 13.3978 12.6956 13.1374L8.50032 8.94215L4.30506 13.1374C4.04471 13.3978 3.6226 13.3978 3.36225 13.1374C3.10191 12.8771 3.1019 12.455 3.36225 12.1946L7.55751 7.99934L3.36225 3.80409C3.1019 3.54374 3.1019 3.12163 3.36225 2.86128Z" fill="#9A9CA5"/>
</svg>
