<svg width="514" height="558" viewBox="0 0 514 558" fill="none" xmlns="http://www.w3.org/2000/svg">
<g opacity="0.4">
<path d="M-134.7 251.203C-140.009 258.456 -145.602 265.825 -151.282 273.308C-169.624 297.474 -188.868 322.826 -202.322 349.271C-219.929 383.878 -227.564 420.252 -210.264 458.134C-193.47 494.909 -159.526 508.744 -120.722 518.151C-111.024 520.502 -101.033 522.575 -90.9365 524.661L-90.2169 524.81C-80.3584 526.846 -70.4046 528.903 -60.5463 531.249C-40.3508 536.055 -20.5265 542.082 -2.67244 551.672C16.8999 562.184 34.875 577.419 52.0724 594.058C60.6723 602.378 69.0833 611.056 77.4043 619.674C77.9512 620.24 78.4976 620.806 79.0437 621.372C86.809 629.417 94.5012 637.386 102.209 644.949C135.245 677.365 168.39 702.138 208.336 693.463C250.973 684.203 285.268 652.054 307.933 610.726C330.597 569.402 341.595 518.963 337.677 473.247C334.299 433.819 308.416 405.733 276.437 379.654C266.785 371.783 256.603 364.114 246.326 356.373C239.568 351.284 232.77 346.163 226.054 340.934C209.145 327.768 192.803 313.944 179.132 298.3C166.023 283.3 155.009 265.646 144.702 247.452C140.616 240.24 136.645 232.95 132.698 225.705C126.676 214.65 120.711 203.701 114.483 193.292C93.8687 158.84 70.556 130.652 33.4675 125.103C-5.1394 119.328 -36.1892 135.816 -63.1045 161.296C-85.0465 182.068 -104.188 208.764 -122.398 234.161C-126.54 239.937 -130.633 245.647 -134.7 251.203Z" stroke="#00F0B5"/>
<path d="M-93.9687 292.499C-98.1507 298.212 -102.556 304.017 -107.029 309.91C-121.47 328.935 -136.613 348.885 -147.201 369.697C-161.057 396.929 -167.055 425.533 -153.453 455.319C-140.252 484.225 -113.571 495.108 -83.0247 502.514C-75.3914 504.364 -67.5266 505.995 -59.5771 507.638L-59.0116 507.755C-51.2496 509.358 -43.4105 510.978 -35.6464 512.826C-19.7421 516.61 -4.12315 521.359 9.94629 528.915C25.3695 537.199 39.5304 549.202 53.0731 562.305C59.8456 568.858 66.4692 575.691 73.0206 582.476C73.451 582.922 73.8812 583.368 74.311 583.813C80.4253 590.147 86.4807 596.421 92.5486 602.375C118.561 627.899 144.618 647.36 176.008 640.543C209.537 633.261 236.517 607.976 254.354 575.454C272.189 542.935 280.843 503.243 277.76 467.27C275.104 436.272 254.757 414.182 229.582 393.653C221.984 387.457 213.97 381.421 205.88 375.328C200.56 371.32 195.206 367.288 189.915 363.168C176.6 352.8 163.727 341.911 152.957 329.587C142.628 317.768 133.952 303.861 125.836 289.535C122.617 283.853 119.489 278.112 116.382 272.407C111.642 263.705 106.947 255.088 102.044 246.894C85.8156 219.771 67.483 197.618 38.3342 193.257C7.98303 188.717 -16.4322 201.676 -37.611 221.725C-54.8788 238.072 -69.942 259.081 -84.2795 279.077C-87.541 283.625 -90.7649 288.122 -93.9687 292.499Z" stroke="#00F0B5"/>
<path d="M-64.5408 322.332C-67.9089 326.934 -71.4563 331.608 -75.0573 336.352C-86.6786 351.663 -98.859 367.71 -107.377 384.452C-118.521 406.356 -123.338 429.345 -112.406 453.282C-101.802 476.503 -80.3696 485.253 -55.7892 491.212C-49.6474 492.7 -43.3191 494.013 -36.9207 495.335L-36.4668 495.429C-30.2192 496.72 -23.9082 498.023 -17.6572 499.511C-4.85344 502.558 7.72718 506.382 19.0621 512.47C31.4874 519.143 42.8926 528.812 53.7946 539.36C59.2469 544.635 64.5789 550.136 69.8517 555.597C70.1985 555.956 70.5451 556.315 70.8915 556.674C75.8123 561.772 80.6847 566.819 85.5669 571.61C106.505 592.156 127.442 607.778 152.648 602.304C179.597 596.451 201.293 576.126 215.64 549.965C229.986 523.808 236.947 491.881 234.467 462.947C232.333 438.04 215.985 420.284 195.727 403.764C189.612 398.777 183.166 393.922 176.656 389.019C172.374 385.794 168.064 382.547 163.803 379.23C153.084 370.884 142.718 362.115 134.043 352.189C125.723 342.669 118.737 331.469 112.203 319.937C109.611 315.36 107.093 310.738 104.592 306.147C100.777 299.145 97.0015 292.213 93.0559 285.619C79.9957 263.792 65.2611 245.999 41.849 242.497C17.4628 238.849 -2.15872 249.257 -19.1929 265.383C-33.0834 278.533 -45.2002 295.432 -56.7396 311.526C-59.3652 315.187 -61.9609 318.807 -64.5408 322.332Z" stroke="#00F0B5"/>
</g>
</svg>
