<svg width="445" height="889" viewBox="0 0 445 889" fill="none" xmlns="http://www.w3.org/2000/svg">
<g opacity="0.4">
<path d="M59.0668 669.034C66.0761 665.94 73.3446 662.882 80.7247 659.776C104.553 649.75 129.544 639.235 150.73 625.448C178.454 607.408 199.559 583.827 202.918 548.529C206.177 514.269 187.038 489.624 162.404 466.159C156.248 460.295 149.756 454.512 143.192 448.673L142.725 448.258C136.316 442.556 129.843 436.798 123.564 430.867C110.701 418.718 98.6297 405.822 89.5294 391.133C79.5534 375.03 72.7707 356.123 67.1615 336.516C64.3564 326.71 61.8428 316.723 59.3707 306.818C59.2082 306.167 59.046 305.517 58.8839 304.867C56.5776 295.622 54.2934 286.465 51.8248 277.601C41.2434 239.604 27.3354 207.244 -5.80236 196.651C-41.1897 185.338 -80.1715 194.455 -114.489 215.302C-148.803 236.147 -178.39 268.683 -194.959 304.083C-209.241 334.596 -202.107 366.324 -189.608 399.187C-185.836 409.107 -181.587 419.101 -177.298 429.189C-174.477 435.824 -171.639 442.499 -168.908 449.221C-162.033 466.142 -155.855 483.31 -152.424 500.685C-149.134 517.347 -148.522 535.074 -148.661 552.894C-148.717 559.96 -148.89 567.033 -149.062 574.062C-149.324 584.784 -149.584 595.404 -149.419 605.738C-148.874 639.944 -143.669 670.646 -118.684 690.512C-92.6715 711.195 -62.7587 712.249 -32.0531 704.906C-7.01916 698.918 18.4694 687.368 42.7256 676.376C48.2431 673.876 53.6967 671.405 59.0668 669.034Z" stroke="#00F0B5"/>
<path d="M46.588 621.209C52.1105 618.771 57.8359 616.362 63.6481 613.917C82.4073 606.023 102.072 597.749 118.744 586.9C140.557 572.706 157.146 554.164 159.786 526.416C162.348 499.494 147.312 480.122 127.921 461.651C123.075 457.035 117.966 452.483 112.797 447.885L112.431 447.56C107.384 443.07 102.286 438.535 97.3407 433.864C87.2111 424.296 77.6986 414.135 70.5263 402.558C62.664 389.867 57.3205 374.969 52.9032 359.528C50.6941 351.806 48.7146 343.941 46.7682 336.143C46.6402 335.63 46.5125 335.118 46.3847 334.606C44.5689 327.327 42.7709 320.119 40.8278 313.141C32.4957 283.222 21.5571 257.801 -4.47315 249.48C-32.2959 240.586 -62.9556 247.751 -89.9592 264.155C-116.959 280.557 -140.24 306.159 -153.276 334.011C-164.502 357.994 -158.899 382.938 -149.061 408.808C-146.091 416.617 -142.747 424.482 -139.371 432.423C-137.15 437.647 -134.915 442.904 -132.763 448.2C-127.349 461.524 -122.482 475.049 -119.779 488.739C-117.186 501.869 -116.705 515.834 -116.814 529.867C-116.858 535.434 -116.994 541.005 -117.129 546.539C-117.336 554.979 -117.54 563.335 -117.411 571.471C-116.981 598.399 -112.883 622.526 -93.2527 638.134C-72.808 654.39 -49.2952 655.224 -25.1365 649.446C-5.43702 644.735 14.6196 635.646 33.7172 626.992C38.0623 625.023 42.3577 623.077 46.588 621.209Z" stroke="#00F0B5"/>
<path d="M37.5712 586.654C42.0195 584.691 46.6299 582.751 51.3093 580.782C66.4061 574.43 82.2216 567.775 95.632 559.048C113.175 547.633 126.501 532.732 128.622 510.438C130.679 488.819 118.609 473.256 103.005 458.393C99.1071 454.68 94.9959 451.017 90.8358 447.316L90.5397 447.053C86.4783 443.44 82.3746 439.79 78.3934 436.029C70.2382 428.326 62.575 420.141 56.7957 410.813C50.4605 400.587 46.1568 388.586 42.6007 376.155C40.8221 369.938 39.2286 363.606 37.662 357.33C37.5591 356.918 37.4563 356.506 37.3536 356.094C35.892 350.235 34.4452 344.435 32.8816 338.82C26.1747 314.736 17.3816 294.33 -3.51331 287.65C-25.8706 280.503 -50.5173 286.259 -72.2363 299.452C-93.9518 312.644 -112.676 333.235 -123.16 355.634C-132.177 374.899 -127.682 394.942 -119.764 415.759C-117.375 422.043 -114.685 428.369 -111.969 434.758C-110.181 438.963 -108.382 443.196 -106.648 447.462C-102.29 458.187 -98.3701 469.079 -96.1925 480.108C-94.104 490.685 -93.7163 501.933 -93.8046 513.229C-93.8396 517.714 -93.9494 522.198 -94.0584 526.653C-94.2245 533.443 -94.389 540.164 -94.2846 546.711C-93.9392 568.382 -90.6394 587.758 -74.8785 600.289C-58.4568 613.347 -39.5682 614.022 -20.1396 609.375C-4.29448 605.586 11.8374 598.276 27.2077 591.311C30.7058 589.725 34.1644 588.158 37.5712 586.654Z" stroke="#00F0B5"/>
</g>
</svg>
